<svg xmlns="http://www.w3.org/2000/svg" viewBox="0 0 64 64">
  <defs>
    <linearGradient id="base" x1="0" y1="0" x2="0" y2="1">
      <stop offset="0" stop-color="#536673"/>
      <stop offset="0.42" stop-color="#435560"/>
      <stop offset="1" stop-color="#2e3c46"/>
    </linearGradient>
    <linearGradient id="panel" x1="0" y1="0" x2="1" y2="1">
      <stop offset="0" stop-color="#92a8b4" stop-opacity="0.22"/>
      <stop offset="0.45" stop-color="#ffffff" stop-opacity="0.03"/>
      <stop offset="1" stop-color="#0f181f" stop-opacity="0.18"/>
    </linearGradient>
    <linearGradient id="cyanGlow" x1="0" y1="0" x2="1" y2="0">
      <stop offset="0" stop-color="#62d6ff" stop-opacity="0"/>
      <stop offset="0.5" stop-color="#62d6ff" stop-opacity="0.5"/>
      <stop offset="1" stop-color="#62d6ff" stop-opacity="0"/>
    </linearGradient>
  </defs>

  <rect width="64" height="64" rx="4" fill="url(#base)"/>
  <rect x="3" y="3" width="58" height="58" rx="3" fill="none" stroke="#a8bcc8" stroke-opacity="0.14" stroke-width="1"/>

  <rect x="5" y="6" width="54" height="16" rx="3" fill="#4a5d69"/>
  <rect x="5" y="24" width="54" height="16" rx="3" fill="#40515c"/>
  <rect x="5" y="42" width="54" height="16" rx="3" fill="#35454f"/>
  <rect x="5" y="6" width="54" height="52" rx="3" fill="url(#panel)"/>

  <g fill="#101a20" fill-opacity="0.72">
    <rect x="10" y="12" width="18" height="2.2" rx="1.1"/>
    <rect x="36" y="12" width="14" height="2.2" rx="1.1"/>
    <rect x="14" y="30" width="14" height="2.2" rx="1.1"/>
    <rect x="36" y="30" width="18" height="2.2" rx="1.1"/>
    <rect x="10" y="48" width="18" height="2.2" rx="1.1"/>
    <rect x="36" y="48" width="14" height="2.2" rx="1.1"/>
  </g>

  <g fill="#d9edf6" fill-opacity="0.08">
    <rect x="8" y="9" width="22" height="1.4" rx="0.7"/>
    <rect x="8" y="27" width="18" height="1.2" rx="0.6"/>
    <rect x="8" y="45" width="22" height="1.2" rx="0.6"/>
  </g>

  <rect x="8" y="22" width="48" height="1.5" rx="0.8" fill="url(#cyanGlow)"/>
  <rect x="8" y="40" width="48" height="1.5" rx="0.8" fill="url(#cyanGlow)"/>

  <g fill="#6be2ff" fill-opacity="0.55">
    <rect x="53" y="9" width="3" height="3" rx="1"/>
    <rect x="8" y="27" width="3" height="3" rx="1"/>
    <rect x="53" y="45" width="3" height="3" rx="1"/>
  </g>
</svg>
