<svg xmlns="http://www.w3.org/2000/svg" viewBox="0 0 64 64">
  <defs>
    <linearGradient id="bossBody" x1="0" y1="0" x2="1" y2="1">
      <stop offset="0" stop-color="#ff6e6e"/>
      <stop offset="1" stop-color="#8f1017"/>
    </linearGradient>
    <filter id="bossGlow" x="-40%" y="-40%" width="180%" height="180%">
      <feDropShadow dx="0" dy="0" stdDeviation="2.5" flood-color="#ff2c47" flood-opacity=".5"/>
    </filter>
  </defs>
  <rect width="64" height="64" rx="12" fill="#0f0507"/>
  <g filter="url(#bossGlow)">
    <g>
      <animateTransform attributeName="transform" type="translate" values="0 0;0 -1;0 0;0 1;0 0" dur="2.6s" repeatCount="indefinite"/>
      <path d="M12 50l6-22 8 4 6-16 6 16 8-4 6 22-10 4H22z" fill="url(#bossBody)"/>
      <path d="M18 21l8-8 6 8 6-8 8 8" fill="none" stroke="#ff9d9d" stroke-width="4" stroke-linecap="round" stroke-linejoin="round"/>
      <path d="M21 34l9-4M43 34l-9-4" stroke="#280408" stroke-width="4" stroke-linecap="round"/>
      <circle cx="24" cy="36" r="4.2" fill="#ffe896">
        <animate attributeName="opacity" values=".9;1;.9" dur="1.4s" repeatCount="indefinite"/>
      </circle>
      <circle cx="40" cy="36" r="4.2" fill="#ffe896">
        <animate attributeName="opacity" values="1;.85;1" dur="1.4s" repeatCount="indefinite"/>
      </circle>
      <circle cx="24" cy="36" r="1.6" fill="#220306"/>
      <circle cx="40" cy="36" r="1.6" fill="#220306"/>
      <path d="M24 46c4 3 12 3 16 0" fill="none" stroke="#220306" stroke-width="4" stroke-linecap="round"/>
    </g>
  </g>
</svg>
