<svg xmlns="http://www.w3.org/2000/svg" viewBox="0 0 64 64">
  <defs>
    <linearGradient id="playerBody" x1="0" y1="0" x2="1" y2="1">
      <stop offset="0" stop-color="#42d9ff"/>
      <stop offset="1" stop-color="#1184a8"/>
    </linearGradient>
    <filter id="playerGlow" x="-40%" y="-40%" width="180%" height="180%">
      <feDropShadow dx="0" dy="0" stdDeviation="2.2" flood-color="#59ebff" flood-opacity=".65"/>
    </filter>
  </defs>
  <rect width="64" height="64" rx="12" fill="#08131f"/>
  <g filter="url(#playerGlow)">
    <g>
      <animateTransform attributeName="transform" type="translate" values="0 0;0 -1.4;0 0" dur="2.4s" repeatCount="indefinite"/>
      <path d="M24 49c1-7 4-11 8-11s7 4 8 11" fill="url(#playerBody)"/>
      <rect x="22" y="25" width="20" height="18" rx="8" fill="url(#playerBody)"/>
      <path d="M18 33l8-4M46 33l-8-4M27 48l-4 8M37 48l4 8" stroke="#89f4ff" stroke-width="4" stroke-linecap="round"/>
      <circle cx="32" cy="18" r="10" fill="#c7fbff"/>
      <path d="M24 18c3-4 13-4 16 0v4c-3 3-13 3-16 0z" fill="#0d2636"/>
      <rect x="26" y="18" width="12" height="3" rx="1.5" fill="#7cf7ff">
        <animate attributeName="opacity" values="1;.35;1" dur="1.8s" repeatCount="indefinite"/>
      </rect>
    </g>
  </g>
</svg>
